<svg version="1.1" id="Layer_1" xmlns="http://www.w3.org/2000/svg" xmlns:xlink="http://www.w3.org/1999/xlink" x="0px" y="0px" viewBox="0 0 500 500" style="width: 158px;" xml:space="preserve" data-imageid="data-analysis-19" imageName="Data Analysis" class="illustrations_image">
<style type="text/css">
	.st0_data-analysis-19{fill:#725858;}
	.st1_data-analysis-19{fill:#093F68;}
	.st2_data-analysis-19{fill:#68E1FD;}
	.st3_data-analysis-19{fill:#FFC9B0;}
	.st4_data-analysis-19{fill:#FFFFFF;}
	.st5_data-analysis-19{fill:#FFBC0E;}
	.st6_data-analysis-19{fill:#F56132;}
	.st7_data-analysis-19{fill:#70CC40;}
</style>
<g id="character_data-analysis-19">
	<path class="st0_data-analysis-19" d="M315.7,81.2c-17-1.1-35.5,6.5-48.4,16.5c-19.8,15.4-29.5,37.8-30.6,62.4l-2.9,65.8&#10;&#9;&#9;c-1.4,32.3-7.8,68.9,23.5,89.6c16.2,10.7,36.2,14,55.6,14.6c24.1,0.9,48.6-1.9,71.2-10.4c18.3-6.8,45-19.6,46.6-42.1&#10;&#9;&#9;c0.9-12.4-7-23.5-11.3-35.2c-9-24.6-1.8-52.1-4.8-78.1c-3.1-26.9-29-83.9-64.9-72.7c-1.8,0.6-3.6,1.4-5.5,1.2&#10;&#9;&#9;c-2.1-0.3-3.8-1.7-5.4-3C332.2,84.6,324.1,81.6,315.7,81.2z"/>
	<path class="st1_data-analysis-19" d="M321.2,332.2c-2.7,0-5.5,0-8.3-0.1c-24.5-0.9-42.5-5.6-56.6-15c-28.7-19-26.8-50.1-24.9-80.2&#10;&#9;&#9;c0.2-3.7,0.4-7.4,0.6-11.1l2.9-65.8c1.2-26.8,12-48.8,31.3-63.8c11.6-9,30.7-18.1,49.6-16.9l0,0c8.8,0.4,17.2,3.6,24.2,9l0.5,0.4&#10;&#9;&#9;c1.4,1.1,2.6,2.1,4,2.3c1.3,0,2.5-0.2,3.6-0.7c0.4-0.1,0.7-0.2,1.1-0.4c9.8-3.1,19.5-1.5,28.8,4.5c21.4,13.9,36.1,49.4,38.4,69.8&#10;&#9;&#9;c1.2,10.2,0.8,20.7,0.5,30.9c-0.6,16.5-1.1,32,4.3,46.8c1.2,3.4,2.8,6.8,4.3,10.1c3.8,8.2,7.7,16.7,7.1,25.9&#10;&#9;&#9;c-1.2,17.6-17.3,32.3-47.8,43.7C365.8,328.6,344.5,332.2,321.2,332.2z M312.3,83c-16.8,0-33.5,8.2-43.8,16.2&#10;&#9;&#9;c-18.4,14.3-28.7,35.4-29.9,61l-2.9,65.8c-0.2,3.7-0.4,7.4-0.6,11.1c-1.8,29-3.6,59.1,23.3,76.9c13.5,8.9,30.9,13.5,54.7,14.3&#10;&#9;&#9;c26,0.9,49.8-2.5,70.5-10.3c29-10.8,44.2-24.5,45.4-40.5c0.6-8.3-3-16-6.7-24.1c-1.5-3.4-3.2-6.8-4.4-10.3&#10;&#9;&#9;c-5.6-15.5-5-32.1-4.5-48.2c0.4-10,0.7-20.4-0.4-30.3c-2.3-19.6-16.3-53.7-36.7-67c-8.4-5.4-17-6.8-25.7-4.1l-1,0.3&#10;&#9;&#9;c-1.7,0.7-3.5,1-5.3,0.9c-2.4-0.3-4.2-1.8-5.9-3l-0.4-0.3c-6.4-4.9-14.1-7.8-22.1-8.2l0,0C314.5,83,313.4,83,312.3,83z"/>
	<path class="st2_data-analysis-19 targetColor" d="M348.5,277.9h-34.1c-16.2,0-34-3-45.5,11.3c-5.1,6.4-6.5,15.4-9.7,22.8c-4.9,11.7-13.1,31.2-26.8,35&#10;&#9;&#9;c-27.1,7.5-54.1,3.5-54.3,3.5c-9.2-1.5-17.8,4.8-19.3,14c-1.5,9.2,4.8,17.8,14,19.3l0,0c7.8,1.1,15.6,1.6,23.4,1.5&#10;&#9;&#9;c15.3,0.1,30.5-1.9,45.2-5.8c10.9-3,26.8-10.1,35.7-21.1v38.8h108.1v-82.5C385.3,294.3,368.8,277.9,348.5,277.9z" style="fill: rgb(240, 117, 97);"/>
	<path class="st1_data-analysis-19" d="M385.3,399H277.2c-1,0-1.9-0.8-1.9-1.9v-34c-9.2,9-22.8,15.2-33.3,18.1c-14.9,4-30.3,6-45.7,5.9&#10;&#9;&#9;c-7.9,0.1-15.9-0.5-23.7-1.5c-10.2-1.6-17.2-11.2-15.6-21.4s11.2-17.2,21.4-15.6c0.3,0,27,3.9,53.5-3.4&#10;&#9;&#9;c12.7-3.5,20.7-22.4,25.4-33.7l0.1-0.2c1-2.4,1.8-4.9,2.7-7.6c1.8-5.5,3.6-11.2,7.3-15.7c10.4-12.9,25.4-12.5,39.8-12.1&#10;&#9;&#9;c2.4,0.1,4.8,0.1,7.2,0.1h34.1c21.3,0,38.6,17.3,38.6,38.6v82.5C387.2,398.1,386.4,399,385.3,399C385.4,399,385.3,399,385.3,399z&#10;&#9;&#9; M279.1,395.3h104.4v-80.6c-0.1-19.3-15.7-34.9-34.9-34.9h-34.1c-2.4,0-4.8-0.1-7.3-0.1c-14.2-0.4-27.6-0.7-36.8,10.7&#10;&#9;&#9;c-3.2,4-5,9.4-6.6,14.5c-0.8,2.6-1.7,5.3-2.8,7.9l-0.1,0.2c-5,11.9-13.4,31.9-27.9,35.9c-27.3,7.6-54,3.7-55.1,3.5&#10;&#9;&#9;c-8.1-1.8-16.1,3.3-17.9,11.4c-1.8,8.1,3.3,16.1,11.4,17.9c0.6,0.1,1.2,0.2,1.8,0.3c7.7,1.1,15.4,1.6,23.1,1.5&#10;&#9;&#9;c15.1,0.1,30.1-1.8,44.7-5.7c11.3-3.1,26.4-10.2,34.7-20.5c0.6-0.8,1.8-0.9,2.6-0.3c0.4,0.4,0.7,0.9,0.7,1.5L279.1,395.3z"/>
	<path class="st1_data-analysis-19" d="M302.1,282.4c0,0,3.8,56,8.5,68.5l13.6-68.5H302.1z"/>
	<path class="st1_data-analysis-19" d="M310.6,352.8c-0.8,0-1.5-0.5-1.8-1.2c-4.8-12.6-8.5-66.7-8.6-69c-0.1-1,0.7-1.9,1.8-2c0,0,0.1,0,0.1,0h22.1&#10;&#9;&#9;c1,0,1.9,0.8,1.9,1.9c0,0.1,0,0.2,0,0.4l-13.6,68.5c-0.2,0.8-0.8,1.4-1.7,1.5L310.6,352.8z M304.1,284.3c0.6,8.4,3.1,41.2,6.3,58.1&#10;&#9;&#9;l11.5-58.1H304.1z"/>
	<path class="st3_data-analysis-19" d="M319.4,289.3h-12.5c-2.9,0-5.2-2.3-5.2-5.2v-17.8l0,0h22.9l0,0v17.8C324.6,287,322.3,289.3,319.4,289.3z"/>
	<path class="st1_data-analysis-19" d="M314.9,291.2h-3.4c-6.4,0-11.6-5.2-11.6-11.6v-13.2c0-1,0.8-1.9,1.9-1.9h22.9c1,0,1.9,0.8,1.9,1.9c0,0,0,0,0,0&#10;&#9;&#9;v13.2C326.5,286,321.3,291.2,314.9,291.2z M303.5,268.2v11.4c0,4.3,3.5,7.9,7.9,7.9h3.4c4.3,0,7.9-3.5,7.9-7.9v-11.4H303.5z"/>
	<path class="st3_data-analysis-19" d="M356.4,206.6c0,10.6,10,19.3,22.3,19.3s22.3-14.2,22.3-24.8s-10-13.7-22.3-13.7S356.4,196,356.4,206.6z"/>
	<path class="st1_data-analysis-19" d="M378.7,227.7c-13.3,0-24.1-9.5-24.1-21.1s10.8-21.1,24.1-21.1c16,0,24.1,5.2,24.1,15.6&#10;&#9;&#9;C402.8,213.1,391.7,227.7,378.7,227.7z M378.7,189.2c-11.3,0-20.4,7.8-20.4,17.4s9.1,17.4,20.4,17.4c10.8,0,20.4-12.8,20.4-22.9&#10;&#9;&#9;C399.1,198.1,399.1,189.2,378.7,189.2z"/>
	<path class="st3_data-analysis-19" d="M226.5,201.1c0,10.6,10,24.8,22.3,24.8c12.3,0,22.3-8.6,22.3-19.3s-10-19.2-22.3-19.2S226.5,190.4,226.5,201.1&#10;&#9;&#9;z"/>
	<path class="st1_data-analysis-19" d="M248.8,227.7c-13,0-24.1-14.7-24.1-26.7c0-10.3,8.1-15.6,24.1-15.6c13.3,0,24.2,9.5,24.2,21.1&#10;&#9;&#9;S262.1,227.7,248.8,227.7z M248.8,189.2c-20.4,0-20.4,8.9-20.4,11.8c0,10.1,9.6,22.9,20.4,22.9c11.2,0,20.4-7.8,20.4-17.4&#10;&#9;&#9;S260,189.2,248.8,189.2z"/>
	<path class="st3_data-analysis-19" d="M313.1,269.4L313.1,269.4c37.2-0.1,67.2-30.2,67.2-67.4v-31.2c0-16.2-24.6-46.4-40.8-46.4&#10;&#9;&#9;c0,0-2.6,15.3-28,28.7c-17.8,9.4-42.8,10-65.6-5.9V202C245.9,239.1,276,269.3,313.1,269.4z"/>
	<path class="st1_data-analysis-19" d="M313.1,271.2c-38.2-0.1-69.1-31.1-69.1-69.2v-54.8c0-0.7,0.4-1.3,1-1.7c0.6-0.3,1.4-0.3,1.9,0.1&#10;&#9;&#9;c23.7,16.5,48.4,13.8,63.6,5.8c24.1-12.7,27-27.2,27-27.4c0.2-0.9,0.9-1.5,1.8-1.5c7.9,0,18.4,6.7,27.9,17.8&#10;&#9;&#9;c9.1,10.7,14.8,22.4,14.8,30.5V202C382.1,240.1,351.3,271.1,313.1,271.2z M247.8,150.7V202c0,36.1,29.2,65.3,65.3,65.3&#10;&#9;&#9;c36.1,0,65.3-29.2,65.3-65.3c0,0,0,0,0,0v-31.2c0-14.5-22.2-42.8-37.5-44.5c-1.4,4.5-7.2,17.1-28.5,28.4&#10;&#9;&#9;C296.8,162.9,272,166,247.8,150.7z"/>
	<path class="st1_data-analysis-19" d="M361.2,176.9L361.2,176.9l-29.7-0.4c-2.1,0-3.7-1.7-3.7-3.8c0,0,0,0,0,0c0.1-2.1,1.7-3.7,3.8-3.7l29.7,0.4&#10;&#9;&#9;c2.1,0,3.7,1.7,3.7,3.7C365,175.2,363.3,176.9,361.2,176.9L361.2,176.9z"/>
	<path class="st1_data-analysis-19" d="M262.4,176.3c-2.1-0.1-3.7-1.9-3.6-3.9c0.1-1.9,1.6-3.5,3.6-3.6l29.7-0.2c2.1-0.1,3.8,1.5,4,3.5&#10;&#9;&#9;c0.1,2.1-1.5,3.8-3.5,4c-0.1,0-0.3,0-0.4,0L262.4,176.3L262.4,176.3z"/>
	<path class="st4_data-analysis-19" d="M285.8,229h49.5c0,0-4.6,23.3-23.4,22.1C285.1,249.5,285.8,229,285.8,229z"/>
	<path class="st1_data-analysis-19" d="M313.4,253.1c-0.5,0-1,0-1.5-0.1c-22.7-1.4-28.2-16.4-27.9-24c0-1,0.9-1.8,1.9-1.8h49.5c1,0,1.9,0.8,1.9,1.9&#10;&#9;&#9;c0,0.1,0,0.2,0,0.4C337.2,229.6,332.3,253.1,313.4,253.1z M287.8,230.9c0.6,4.8,4,17.1,24.3,18.4c13.8,0.9,19.2-12.9,20.8-18.4&#10;&#9;&#9;H287.8z"/>
	<path class="st5_data-analysis-19" d="M382.4,185.5c0,0,8.6-34.5-12.1-64.2s-73.3-31.9-93.8-18.7c-32.1,20.7-30.6,44.5-30.6,44.5&#10;&#9;&#9;s-7.8-66.2,69.7-65.9C385.6,81.5,403.1,139.1,382.4,185.5z"/>
	<path class="st1_data-analysis-19" d="M382.4,187.4c-0.2,0-0.4,0-0.6-0.1c-0.9-0.3-1.4-1.3-1.2-2.2c0.1-0.3,8.1-34.1-11.8-62.7&#10;&#9;&#9;C349.2,94.1,298,91,277.6,104.2c-30.8,19.8-29.8,42.6-29.8,42.8c0,1-0.8,1.9-1.8,1.9c-1,0-1.8-0.7-1.9-1.6&#10;&#9;&#9;c-0.1-1.1-3-27.5,14.6-47.3C271,86.3,290,79.4,315.2,79.4h0.4c38.2,0.1,57,16.8,66,30.7c13.3,20.5,14.2,49.7,2.4,76.2&#10;&#9;&#9;C383.8,186.9,383.2,187.4,382.4,187.4z M309.3,93.1c23.1,0,49.5,8.2,62.6,27.1c12,17.2,14.4,35.8,14.2,48.8&#10;&#9;&#9;c5.1-20.6,2.5-41.5-7.5-57c-12.2-18.9-34-28.9-62.9-29h-0.4c-24.1,0-42.2,6.5-53.7,19.4c-7.3,8.2-10.9,17.8-12.5,26&#10;&#9;&#9;c4.2-8.3,12.1-18.2,26.5-27.5C283.5,95.9,295.9,93.1,309.3,93.1z"/>
	<path class="st3_data-analysis-19" d="M290.4,371.1l-3.2-1.4c-7.1-3-24.1-9.9-29.1-10.8c-6.4-1.1-18.5,0.7-19.9,0s-12.1,11.3-12.5,15.1&#10;&#9;&#9;s13.2,8.1,16.7,5.6c3.1-2,6.3-3.9,9.6-5.6c0,0,8.2,18,32.8,16.1"/>
	<path class="st1_data-analysis-19" d="M281.2,392.2c-11.2,0-18.7-4.2-23.2-7.9c-2.6-2.2-4.9-4.8-6.7-7.7c-2.7,1.4-5.3,2.9-7.8,4.6&#10;&#9;&#9;c-3.5,2.4-11.6,0.4-15.9-2.1c-2.7-1.6-4-3.3-3.8-5.2c0.4-4.3,9.5-14.6,12.7-16.4c0.7-0.5,1.6-0.6,2.4-0.3c1.9,0.1,3.7,0,5.6-0.2&#10;&#9;&#9;c4.5-0.3,10.1-0.6,14,0.1c5,0.8,20.6,7.2,29.5,10.9l3.2,1.4c0.9,0.5,1.3,1.6,0.8,2.5c-0.4,0.8-1.4,1.2-2.3,0.9c0,0-1.2-0.5-3.2-1.4&#10;&#9;&#9;c-14.6-6.1-25.3-10.1-28.7-10.6s-8.8-0.3-13.1,0c-2.2,0.2-4.4,0.3-6.5,0.1c-2.6,1.5-10.3,10.8-10.6,13.3c0.1,0.3,1.4,1.6,4.5,2.8&#10;&#9;&#9;c4.1,1.6,8.2,1.8,9.3,1.1c3.2-2.1,6.4-4,9.8-5.7c0.5-0.2,1-0.3,1.5-0.1c0.5,0.2,0.9,0.5,1.1,1c0.3,0.7,8,16.8,30.9,15&#10;&#9;&#9;c1-0.1,1.9,0.7,2,1.7c0.1,1-0.7,1.9-1.7,2l0,0C283.6,392.1,282.4,392.2,281.2,392.2z M239,357.4L239,357.4z"/>
	<path class="st2_data-analysis-19 targetColor" d="M339.4,304.8l-5.6,41.3c0,8.5-6.9,17.3-15.5,17.3h-37.8v33.7h62.2c17.4,0,31.5-14.1,31.5-31.5c0,0,0,0,0,0&#10;&#9;&#9;l5.6-57.9" style="fill: rgb(240, 117, 97);"/>
	<path class="st1_data-analysis-19" d="M342.8,399h-62.2c-1,0-1.9-0.8-1.9-1.8c0,0,0,0,0,0v-33.7c0-1,0.8-1.9,1.9-1.9h37.8c7.6,0,13.6-8.3,13.6-15.5&#10;&#9;&#9;c0-0.1,0-0.2,0-0.2l5.5-41.3c0.1-1,1.1-1.7,2.1-1.6c1,0.1,1.7,1.1,1.6,2.1l-5.5,41.2c-0.1,9-7.5,19.1-17.3,19.1h-35.9v30h60.3&#10;&#9;&#9;c16.4,0,29.7-13.3,29.7-29.7l5.6-58.1c0.1-1,1-1.8,2-1.7c1,0.1,1.8,1,1.7,2l0,0l-5.5,57.9C376.1,384.1,361.2,399,342.8,399z"/>
	<path class="st1_data-analysis-19" d="M277.2,360.2c-0.6,0-1.2-0.3-1.5-0.8c-0.6-0.9-15.4-22.3-3-44.2c0.5-0.9,1.6-1.3,2.5-0.8s1.3,1.6,0.8,2.5&#10;&#9;&#9;c0,0.1-0.1,0.1-0.1,0.2c-11.2,19.8,2.7,40,2.8,40.2c0.6,0.8,0.4,2-0.4,2.6C278,360.1,277.6,360.2,277.2,360.2L277.2,360.2z"/>
	<path class="st1_data-analysis-19" d="M304.9,220.9c-1.7,0-3.4-0.2-5-0.5c-1-0.2-1.8-0.9-2.2-1.9c-1.8-4.1,3.6-15,5.3-18.3c0.5-0.9,1.6-1.3,2.5-0.8&#10;&#9;&#9;c0.9,0.5,1.3,1.6,0.8,2.5l0,0c-3.3,6.4-5.7,13.1-5.2,14.9c3.8,0.9,9.2-0.1,9.3-0.1c1-0.2,2,0.5,2.2,1.5c0.2,1-0.5,2-1.5,2.2&#10;&#9;&#9;C309,220.7,306.9,220.9,304.9,220.9z M301.1,216.9L301.1,216.9z"/>
	<ellipse class="st1_data-analysis-19" cx="269.3" cy="201.1" rx="5.9" ry="5.9"/>
	<ellipse class="st1_data-analysis-19" cx="330.2" cy="201.1" rx="5.9" ry="5.9"/>
	<path class="st1_data-analysis-19" d="M274.9,217.8c-11.5,0-20.9-9.4-20.9-20.9s9.4-20.9,20.9-20.9c11.5,0,20.9,9.4,20.9,20.9v0&#10;&#9;&#9;C295.8,208.4,286.5,217.7,274.9,217.8z M274.9,179.7c-9.5,0-17.2,7.7-17.2,17.2s7.7,17.2,17.2,17.2s17.2-7.7,17.2-17.2&#10;&#9;&#9;C292.1,187.4,284.4,179.7,274.9,179.7z"/>
	<path class="st1_data-analysis-19" d="M331.5,217.8c-11.5,0-20.9-9.4-20.9-20.9S320,176,331.5,176c11.5,0,20.9,9.4,20.9,20.9v0&#10;&#9;&#9;C352.4,208.4,343.1,217.7,331.5,217.8z M331.5,179.7c-9.5,0-17.2,7.7-17.2,17.2s7.7,17.2,17.2,17.2s17.2-7.7,17.2-17.2&#10;&#9;&#9;C348.7,187.4,341,179.7,331.5,179.7z"/>
	<path class="st1_data-analysis-19" d="M312.5,198.7H294c-1,0-1.9-0.8-1.9-1.9c0-1,0.8-1.9,1.9-1.9h18.5c1,0,1.9,0.8,1.9,1.9&#10;&#9;&#9;C314.4,197.9,313.5,198.7,312.5,198.7z"/>
	<path class="st1_data-analysis-19" d="M256.1,195.8c-0.4,0-0.8-0.1-1.2-0.4l-10.4-8.4c-0.8-0.6-0.9-1.8-0.3-2.6c0.6-0.8,1.8-0.9,2.6-0.3l0,0&#10;&#9;&#9;l10.4,8.4c0.8,0.6,0.9,1.8,0.3,2.6C257.3,195.6,256.7,195.8,256.1,195.8L256.1,195.8z"/>
	<path class="st1_data-analysis-19" d="M350.6,198.7c-1,0-1.9-0.9-1.8-1.9c0-0.8,0.5-1.5,1.2-1.7l28.1-9.5c1-0.3,2,0.2,2.4,1.2c0,0,0,0,0,0&#10;&#9;&#9;c0.3,1-0.2,2-1.2,2.4l-28.1,9.5C351,198.7,350.8,198.7,350.6,198.7z"/>
</g>
<g id="table_data-analysis-19">
	<path class="st1_data-analysis-19" d="M418.5,415.9H77.4c-4.5,0-8.1-3.6-8.1-8.1v-2.5c0-4.5,3.6-8.1,8.1-8.1h341.1c4.5,0,8.1,3.6,8.1,8.1v2.5&#10;&#9;&#9;C426.6,412.2,423,415.9,418.5,415.9z"/>
	<path class="st1_data-analysis-19" d="M417.9,417.8h-340c-5.8,0-10.6-4.7-10.6-10.6v-1.3c0-5.8,4.7-10.6,10.6-10.6h340c5.8,0,10.6,4.7,10.6,10.6v1.3&#10;&#9;&#9;C428.5,413,423.8,417.8,417.9,417.8z M77.9,399c-3.8,0-6.8,3.1-6.8,6.8v1.3c0,3.8,3.1,6.8,6.8,6.8h340c3.8,0,6.8-3.1,6.8-6.9v-1.3&#10;&#9;&#9;c0-3.8-3.1-6.8-6.8-6.8L77.9,399z"/>
</g>
<g id="graph_data-analysis-19">
	<path class="st4_data-analysis-19" d="M191.3,211.5H82.3c-5.6,0-10.2,4.6-10.2,10.2v60.2c0,5.6,4.6,10.2,10.2,10.2H105l10.6,16.4&#10;&#9;&#9;c0.2,0.3,0.7,0.4,1,0.2c0.2-0.1,0.3-0.4,0.3-0.6v-16h74.2c5.6,0,10.2-4.6,10.2-10.2v-60.2C201.4,216,196.9,211.5,191.3,211.5z"/>
	<path class="st1_data-analysis-19" d="M116.3,310.7c-0.9,0-1.7-0.5-2.2-1.2L104,294H82.3c-6.7,0-12.1-5.4-12.1-12.1v-60.2c0-6.7,5.4-12.1,12.1-12.1&#10;&#9;&#9;h108.9c6.7,0,12.1,5.4,12.1,12.1v60.2c0,6.7-5.4,12.1-12.1,12.1h-72.4v14.1c0,1.2-0.8,2.2-1.9,2.5&#10;&#9;&#9;C116.8,310.7,116.5,310.7,116.3,310.7z M82.3,213.3c-4.6,0-8.3,3.7-8.3,8.3v60.2c0,4.6,3.7,8.3,8.3,8.3H105c0.6,0,1.2,0.3,1.6,0.9&#10;&#9;&#9;l8.6,13.2v-12.2c0-1,0.8-1.9,1.9-1.9h74.2c4.6,0,8.3-3.7,8.3-8.3v-60.2c0-4.6-3.7-8.3-8.3-8.3H82.3z"/>
	<path class="st1_data-analysis-19" d="M185.1,278.4H92.2c-1,0-1.9-0.8-1.9-1.9v-50.4c0.1-1,1-1.8,2-1.7c0.9,0.1,1.7,0.8,1.7,1.7v48.5h91.1&#10;&#9;&#9;c1,0,1.9,0.8,1.9,1.9C187,277.6,186.2,278.4,185.1,278.4z"/>
	<rect x="105.2" y="252.3" class="st6_data-analysis-19" width="13.7" height="24.2"/>
	<path class="st1_data-analysis-19" d="M118.9,278.4h-13.7c-1,0-1.9-0.8-1.9-1.9v-24.2c0-1,0.8-1.9,1.9-1.9h13.7c1,0,1.9,0.8,1.9,1.9v24.2&#10;&#9;&#9;C120.7,277.6,119.9,278.4,118.9,278.4C118.9,278.4,118.9,278.4,118.9,278.4z M107.1,274.7h9.9v-20.5h-9.9L107.1,274.7z"/>
	<rect x="131.8" y="239" class="st5_data-analysis-19" width="13.7" height="37.5"/>
	<path class="st1_data-analysis-19" d="M145.5,278.4h-13.7c-1,0-1.9-0.8-1.9-1.9V239c0-1,0.8-1.9,1.9-1.9h13.7c1,0,1.9,0.8,1.9,1.9v37.5&#10;&#9;&#9;C147.4,277.5,146.5,278.4,145.5,278.4C145.5,278.4,145.5,278.4,145.5,278.4z M133.6,274.7h9.9v-33.8h-9.9V274.7z"/>
	<rect x="158.4" y="224.6" class="st7_data-analysis-19" width="13.7" height="52"/>
	<path class="st1_data-analysis-19" d="M172.1,278.4h-13.7c-1,0-1.9-0.8-1.9-1.9v-52c0-1,0.8-1.9,1.9-1.9h13.7c1,0,1.9,0.8,1.9,1.9c0,0,0,0,0,0v52&#10;&#9;&#9;C174,277.6,173.1,278.4,172.1,278.4z M160.3,274.7h10v-48.2h-10V274.7z"/>
</g>
<g id="chart_data-analysis-19">
	<path class="st4_data-analysis-19" d="M181.2,115.9h-71.5c-5.5,0-10,4.5-10,10l0,0v50.2c0,5.5,4.5,10,10,10h43.8c0,3.9-0.1,8.6-0.1,11.6&#10;&#9;&#9;c0,0.7,0.5,1.2,1.2,1.2c0.4,0,0.7-0.1,0.9-0.4l11.1-12.5h14.7c5.5,0,10-4.5,10-10V126C191.3,120.5,186.8,116,181.2,115.9&#10;&#9;&#9;C181.3,115.9,181.3,115.9,181.2,115.9z"/>
	<path class="st1_data-analysis-19" d="M154.6,200.9c-1.7,0-3.1-1.4-3.1-3.1c0,0,0,0,0-0.1c0.1-2.7,0.1-6.4,0.1-9.7h-41.9c-6.6,0-11.9-5.3-11.9-11.9&#10;&#9;&#9;V126c0-6.6,5.3-11.9,11.9-11.9h71.5c6.6,0,11.9,5.3,11.9,11.9v50.2c0,6.5-5.4,11.8-11.9,11.8h-13.9l-10.5,11.9&#10;&#9;&#9;C156.3,200.5,155.5,200.9,154.6,200.9z M109.7,117.8c-4.5,0-8.2,3.7-8.2,8.2v50.2c0,4.5,3.7,8.2,8.2,8.2h43.8c1,0,1.9,0.8,1.9,1.9&#10;&#9;&#9;c0,3.2-0.1,6.9-0.1,9.9l9.9-11.1c0.4-0.4,0.9-0.6,1.4-0.6h14.7c4.5,0,8.2-3.7,8.2-8.2V126c0-4.5-3.7-8.2-8.2-8.2L109.7,117.8z"/>
	<path class="st2_data-analysis-19 targetColor" d="M171.3,150.8c0,14.2-11.6,25.8-25.8,25.8c-14.2,0-25.8-11.6-25.8-25.8c0-14.2,11.6-25.8,25.8-25.8&#10;&#9;&#9;C159.7,125.1,171.2,136.6,171.3,150.8z" style="fill: rgb(240, 117, 97);"/>
	<path class="st1_data-analysis-19" d="M145.5,178.5c-15.3,0-27.6-12.4-27.6-27.7c0-15.3,12.4-27.6,27.7-27.6s27.6,12.4,27.6,27.7&#10;&#9;&#9;c0,4.6-1.1,9.1-3.3,13.1C165,172.9,155.6,178.5,145.5,178.5z M145.5,126.9c-13.2,0-24,10.7-24,23.9c0,13.2,10.7,24,23.9,24&#10;&#9;&#9;c13.2,0,24-10.7,24-23.9c0,0,0,0,0-0.1C169.4,137.6,158.7,126.9,145.5,126.9z"/>
	<path class="st4_data-analysis-19" d="M171.3,150.8c0,4.3-1.1,8.5-3.1,12.3l-22.7-12.3V125C159.7,125,171.3,136.5,171.3,150.8&#10;&#9;&#9;C171.3,150.8,171.3,150.8,171.3,150.8z"/>
	<path class="st1_data-analysis-19" d="M168.2,165c-0.3,0-0.6-0.1-0.9-0.2l-22.7-12.3c-0.6-0.3-1-1-1-1.6V125c0-1,0.8-1.9,1.9-1.9&#10;&#9;&#9;c15.3,0,27.7,12.4,27.7,27.7c0,4.6-1.1,9.2-3.3,13.2c-0.2,0.4-0.6,0.8-1.1,0.9C168.5,165,168.3,165,168.2,165z M147.4,149.7&#10;&#9;&#9;l20,10.8c5.4-12.1-0.1-26.2-12.2-31.6c-2.5-1.1-5.1-1.8-7.8-2V149.7z"/>
</g>
<g id="device_data-analysis-19">
	<rect x="196.8" y="383.2" class="st5_data-analysis-19" width="67.9" height="13.9"/>
	<path class="st1_data-analysis-19" d="M264.6,399h-67.9c-1,0-1.9-0.8-1.9-1.8c0,0,0,0,0,0v-13.9c0-1,0.8-1.9,1.9-1.9h67.9c1,0,1.9,0.8,1.9,1.9v13.9&#10;&#9;&#9;C266.5,398.2,265.7,399,264.6,399z M198.6,395.3h64.1v-10.2h-64.1V395.3z"/>
	<rect x="104.9" y="383.2" class="st5_data-analysis-19" width="91.9" height="13.9"/>
	<path class="st1_data-analysis-19" d="M196.8,399h-91.9c-1,0-1.9-0.8-1.9-1.9v-13.9c0-1,0.8-1.9,1.9-1.9h91.9c1,0,1.9,0.8,1.9,1.9v13.9&#10;&#9;&#9;C198.6,398.2,197.8,399,196.8,399z M106.8,395.3h88.1v-10.2h-88.1L106.8,395.3z"/>
	<path class="st5_data-analysis-19" d="M104.9,383.2h91.9l-18.9-62.6c-0.8-2.6-3.2-4.5-6-4.4H93.1c-3.4,0-6.2,2.8-6.3,6.2c0,0.6,0.1,1.2,0.3,1.8&#10;&#9;&#9;L104.9,383.2z"/>
	<path class="st1_data-analysis-19" d="M196.8,385.1h-91.9c-0.8,0-1.5-0.5-1.8-1.3l-17.8-59c-1.3-4.3,1.1-8.8,5.4-10.1c0.8-0.2,1.5-0.3,2.3-0.3h78.9&#10;&#9;&#9;c3.6,0,6.8,2.3,7.8,5.8l18.9,62.6c0.3,1-0.3,2-1.3,2.3C197.1,385.1,196.9,385.2,196.8,385.1L196.8,385.1z M106.3,381.4h88&#10;&#9;&#9;l-18.1-60.2c-0.5-1.8-2.2-3.1-4.2-3.1H93.1c-2.4,0-4.4,2-4.4,4.4c0,0.4,0.1,0.8,0.2,1.3L106.3,381.4z"/>
	
		<ellipse transform="matrix(0.8128 -0.5825 0.5825 0.8128 -178.9251 148.6385)" class="st4_data-analysis-19" cx="141.8" cy="352.7" rx="6.9" ry="8.9"/>
	<path class="st1_data-analysis-19" d="M143.6,362.8c-5,0-9.8-4.3-11-9.7c-0.7-2.7-0.1-5.5,1.5-7.8c1.4-1.8,3.6-2.8,5.9-2.7c5,0,9.8,4.3,11,9.7&#10;&#9;&#9;c0.7,2.7,0.1,5.5-1.5,7.8C148,361.9,145.9,362.9,143.6,362.8z M140,346.4c-1.2,0-2.3,0.4-3,1.3c-0.9,1.3-1.2,3-0.8,4.6&#10;&#9;&#9;c0.8,3.7,4.2,6.8,7.3,6.8c1.2,0.1,2.3-0.4,3-1.3c0.9-1.3,1.2-3,0.8-4.6l0,0C146.6,349.5,143.2,346.4,140,346.4z"/>
</g>
</svg>